<svg width="135" height="52" viewBox="0 0 135 52" fill="none" xmlns="http://www.w3.org/2000/svg">
<path d="M36.8 38.3366L9.33337 51.9999L33.4666 29.9795L28.2666 18.1734L32.8 9.5509L51.9999 51.9999H43.4666L36.8 38.3366Z" fill="#FD633D"/>
<path d="M6.93331 52H0L28.2666 0L31.9999 7.03061L6.93331 52Z" fill="white"/>
<path d="M67.1055 22L65.5693 22.1611C65.2686 22.1611 65.0465 22.0895 64.9033 21.9463C64.7529 21.8031 64.6777 21.667 64.6777 21.5381C64.6777 21.2087 64.8174 21.0439 65.0967 21.0439L65.623 21.1084C65.9525 21.1084 66.2174 20.9831 66.418 20.7324C66.776 20.2741 67.263 19.3825 67.8789 18.0576L73.6367 5.60742C73.8444 5.16341 73.9876 4.91992 74.0664 4.87695C74.1523 4.82682 74.2275 4.80176 74.292 4.80176C74.3636 4.80176 74.4352 4.8304 74.5068 4.8877C74.5856 4.93783 74.6715 5.03451 74.7646 5.17773C74.9508 5.45703 75.2015 5.94401 75.5166 6.63867L81.1992 19.0459C81.5645 19.8408 81.8617 20.3564 82.0908 20.5928C82.4274 20.9365 82.7389 21.1084 83.0254 21.1084L83.5625 21.0332C83.7057 21.0332 83.8096 21.0869 83.874 21.1943C83.9385 21.2946 83.9707 21.4128 83.9707 21.5488C83.9707 21.6849 83.8955 21.821 83.7451 21.957C83.6019 22.0931 83.3691 22.1611 83.0469 22.1611L80.9307 22L78.2666 22.1611C77.7438 22.1611 77.4036 22.0143 77.2461 21.7207C77.2103 21.6419 77.1924 21.5703 77.1924 21.5059C77.1924 21.1979 77.3249 21.0439 77.5898 21.0439L78.3633 21.1406C78.8001 21.1406 79.0186 21.0153 79.0186 20.7646C79.0186 20.4639 78.8717 19.9948 78.5781 19.3574L77.8369 17.9395C77.7367 17.7318 77.5934 17.5778 77.4072 17.4775C77.2282 17.3701 76.9489 17.3164 76.5693 17.3164H70.9404C70.2028 17.3164 69.7373 17.5456 69.5439 18.0039L69.2324 18.9277C68.8529 19.8229 68.6559 20.3923 68.6416 20.6357C68.6416 20.9508 68.8994 21.1084 69.415 21.1084L69.9521 21.0332C70.0739 21.0332 70.1706 21.0833 70.2422 21.1836C70.321 21.2767 70.3604 21.3984 70.3604 21.5488C70.3604 21.6921 70.2673 21.8317 70.0811 21.9678C69.902 22.0967 69.6299 22.1611 69.2646 22.1611L67.1055 22ZM75.5918 15.9414C76.3939 15.9414 76.7949 15.8447 76.7949 15.6514C76.7949 15.6084 76.7663 15.5225 76.709 15.3936L74.3994 9.76465C74.1344 9.09147 73.9411 8.75488 73.8193 8.75488C73.6904 8.75488 73.5221 9.00195 73.3145 9.49609L70.8223 15.1895C70.722 15.4115 70.6719 15.5654 70.6719 15.6514C70.6719 15.8447 71.0693 15.9414 71.8643 15.9414H75.5918ZM91.168 22.1504L88.0635 22C87.7054 22 87.3652 22.0179 87.043 22.0537C86.4629 22.1182 86.0081 22.1504 85.6787 22.1504C85.3564 22.1504 85.1309 22.1253 85.002 22.0752C84.873 22.0322 84.7692 21.9785 84.6904 21.9141C84.5472 21.7995 84.4756 21.6742 84.4756 21.5381C84.4756 21.2015 84.6152 21.0332 84.8945 21.0332L85.582 21.0977C86.0762 21.0977 86.4056 20.9043 86.5703 20.5176C86.7135 20.181 86.7852 19.5436 86.7852 18.6055V8.75488C86.7852 7.78809 86.7207 7.16146 86.5918 6.875C86.4629 6.58854 86.3089 6.3916 86.1299 6.28418C85.9508 6.17676 85.7145 6.12305 85.4209 6.12305L84.8945 6.1875C84.7585 6.1875 84.6546 6.14095 84.583 6.04785C84.5114 5.95475 84.4756 5.86165 84.4756 5.76855C84.4756 5.67546 84.4899 5.5931 84.5186 5.52148C84.5544 5.44271 84.6117 5.37109 84.6904 5.30664C84.8838 5.14909 85.138 5.07031 85.4531 5.07031C85.7682 5.07031 86.0368 5.07747 86.2588 5.0918L87.5156 5.19922C87.7161 5.2207 87.9453 5.23145 88.2031 5.23145H97.2051C97.2552 5.56803 97.3268 5.9082 97.4199 6.25195L97.6885 7.27246C97.8962 8.03874 98 8.55078 98 8.80859C98 9.05924 97.9212 9.18457 97.7637 9.18457C97.6419 9.18457 97.4844 9.06283 97.291 8.81934C97.0977 8.57585 96.8828 8.32161 96.6465 8.05664C96.4102 7.78451 96.1452 7.54102 95.8516 7.32617C95.1855 6.86068 94.3799 6.62793 93.4346 6.62793H90.3193C90.0042 6.62793 89.7572 6.73177 89.5781 6.93945C89.4062 7.14714 89.3203 7.43359 89.3203 7.79883V12.2031C89.3203 12.5827 89.6318 12.7725 90.2549 12.7725H93.209C93.696 12.7725 94.1471 12.5218 94.5625 12.0205C94.7057 11.8486 94.8132 11.6803 94.8848 11.5156C94.9564 11.3438 95.0137 11.2292 95.0566 11.1719C95.1068 11.1146 95.182 11.0859 95.2822 11.0859C95.4971 11.0859 95.6045 11.2865 95.6045 11.6875L95.5186 13.5459L95.6045 15.2324C95.6045 15.6335 95.4971 15.834 95.2822 15.834C95.1318 15.834 95.0173 15.7266 94.9385 15.5117C94.6377 14.8457 94.208 14.4232 93.6494 14.2441C93.4919 14.194 93.3451 14.1689 93.209 14.1689H90.2441C89.9505 14.1689 89.7214 14.2334 89.5566 14.3623C89.3991 14.484 89.3203 14.638 89.3203 14.8242V18.6055C89.3203 19.5365 89.3776 20.138 89.4922 20.4102C89.6068 20.6823 89.7428 20.8649 89.9004 20.958C90.0579 21.0511 90.2656 21.0977 90.5234 21.0977L91.8877 21.001C92.0094 21.001 92.1061 21.0583 92.1777 21.1729C92.2493 21.2803 92.2852 21.377 92.2852 21.4629C92.2852 21.5417 92.2637 21.6204 92.2207 21.6992C92.1777 21.778 92.1133 21.8496 92.0273 21.9141C91.8053 22.0716 91.5189 22.1504 91.168 22.1504ZM105.691 21.0977L106.379 21.0332C106.515 21.0332 106.619 21.0833 106.69 21.1836C106.762 21.2839 106.798 21.377 106.798 21.4629C106.798 21.5417 106.78 21.6204 106.744 21.6992C106.715 21.778 106.662 21.8496 106.583 21.9141C106.39 22.0716 106.135 22.1504 105.82 22.1504C105.512 22.1504 105.247 22.1432 105.025 22.1289C104.811 22.1146 104.606 22.0967 104.413 22.0752C103.962 22.0251 103.561 22 103.21 22C102.866 22 102.533 22.0179 102.211 22.0537C101.631 22.1182 101.176 22.1504 100.847 22.1504C100.517 22.1504 100.288 22.1253 100.159 22.0752C100.03 22.0322 99.9264 21.9785 99.8477 21.9141C99.7044 21.7995 99.6328 21.6742 99.6328 21.5381C99.6328 21.2015 99.7725 21.0332 100.052 21.0332L100.75 21.0977C101.237 21.0977 101.563 20.9043 101.728 20.5176C101.878 20.1667 101.953 19.5293 101.953 18.6055V8.62598C101.953 7.69499 101.892 7.09342 101.771 6.82129C101.656 6.54199 101.52 6.35579 101.362 6.2627C101.205 6.1696 101.001 6.12305 100.75 6.12305L100.052 6.1875C99.9157 6.1875 99.8118 6.14095 99.7402 6.04785C99.6686 5.94759 99.6328 5.85449 99.6328 5.76855C99.6328 5.68262 99.6471 5.60384 99.6758 5.53223C99.7116 5.45345 99.7689 5.37826 99.8477 5.30664C100.034 5.14909 100.285 5.07031 100.6 5.07031C100.915 5.07031 101.18 5.08105 101.395 5.10254C101.617 5.11686 101.824 5.13477 102.018 5.15625L102.598 5.19922C102.784 5.2207 102.988 5.23145 103.21 5.23145C103.432 5.23145 103.64 5.22428 103.833 5.20996C104.026 5.18848 104.22 5.17057 104.413 5.15625C104.993 5.09896 105.416 5.07031 105.681 5.07031C105.946 5.07031 106.143 5.09538 106.271 5.14551C106.4 5.18848 106.504 5.24219 106.583 5.30664C106.726 5.43555 106.798 5.56445 106.798 5.69336C106.798 6.02279 106.658 6.1875 106.379 6.1875L105.691 6.12305C105.197 6.12305 104.868 6.31641 104.703 6.70312C104.553 7.05404 104.478 7.69499 104.478 8.62598V12.3535C105.072 12.1745 105.688 11.8558 106.325 11.3975C107.442 10.5811 108.685 9.52474 110.053 8.22852C110.984 7.33333 111.449 6.73177 111.449 6.42383C111.449 6.22331 111.299 6.12305 110.998 6.12305L110.3 6.09082C110.178 6.09082 110.078 6.04427 109.999 5.95117C109.92 5.85091 109.881 5.74707 109.881 5.63965C109.881 5.26725 110.185 5.08105 110.794 5.08105L113.157 5.23145L114.844 5.08105C115.503 5.08105 115.832 5.26725 115.832 5.63965C115.832 5.84733 115.778 5.99414 115.671 6.08008C115.571 6.15885 115.488 6.19824 115.424 6.19824L114.715 6.13379C114.335 6.13379 113.698 6.57064 112.803 7.44434C109.766 10.4092 107.475 12.2604 105.928 12.998C107.389 13.2415 108.57 13.6891 109.473 14.3408C110.482 15.0785 111.381 16.2314 112.169 17.7998C112.649 18.7881 113.175 19.5794 113.748 20.1738C114.228 20.6608 114.647 20.9043 115.005 20.9043L115.531 20.7969C115.746 20.7969 115.886 20.9616 115.95 21.291C115.965 21.3626 115.972 21.4342 115.972 21.5059C115.972 21.5703 115.936 21.6455 115.864 21.7314C115.8 21.8102 115.71 21.8783 115.596 21.9355C115.338 22.0645 114.962 22.1289 114.468 22.1289C113.981 22.1289 113.465 22.0394 112.921 21.8604C112.377 21.6742 111.865 21.3913 111.385 21.0117C110.468 20.2741 109.612 19.0996 108.817 17.4883C107.958 15.7695 106.923 14.7168 105.713 14.3301C105.326 14.2012 104.914 14.1152 104.478 14.0723V18.6055C104.478 19.5293 104.535 20.1309 104.649 20.4102C104.771 20.6823 104.911 20.8649 105.068 20.958C105.226 21.0511 105.434 21.0977 105.691 21.0977ZM65.7842 37.4209C65.6123 37.4209 65.5264 37.2956 65.5264 37.0449C65.5264 36.7943 65.5407 36.5651 65.5693 36.3574C65.6051 36.1497 65.6481 35.9528 65.6982 35.7666C65.7484 35.5804 65.8057 35.3978 65.8701 35.2188L66.0742 34.6602C66.2461 34.1732 66.3643 33.7363 66.4287 33.3496C66.4932 32.9629 66.5612 32.7337 66.6328 32.6621C66.7044 32.5833 66.7832 32.5439 66.8691 32.5439C67.0124 32.5439 67.1986 32.6943 67.4277 32.9951C67.5423 33.1312 67.7106 33.2064 67.9326 33.2207C68.1618 33.2279 68.3802 33.2314 68.5879 33.2314H79.459C79.9102 33.2314 80.2503 33.1527 80.4795 32.9951C80.7087 32.8376 80.8662 32.723 80.9521 32.6514C81.0381 32.5798 81.1097 32.5439 81.167 32.5439C81.2243 32.5439 81.2744 32.5475 81.3174 32.5547C81.3675 32.5618 81.4141 32.5798 81.457 32.6084C81.5788 32.68 81.5859 32.8411 81.4785 33.0918C81.3783 33.3353 81.2637 33.6504 81.1348 34.0371C81.0059 34.4167 80.8877 34.7891 80.7803 35.1543C80.5869 35.8203 80.4508 36.3359 80.3721 36.7012C80.2718 37.2025 80.1322 37.4531 79.9531 37.4531C79.7669 37.4531 79.6523 37.3421 79.6094 37.1201C79.5736 36.891 79.5306 36.6904 79.4805 36.5186C79.4303 36.3395 79.3659 36.1784 79.2871 36.0352C78.8001 35.1758 77.2891 34.7461 74.7539 34.7461V46.3906C74.7539 47.3359 74.8112 47.9661 74.9258 48.2812C75.0475 48.5964 75.1872 48.8148 75.3447 48.9365C75.5023 49.0511 75.6706 49.1084 75.8496 49.1084C76.0358 49.1084 76.1719 49.1048 76.2578 49.0977C76.4655 49.069 76.6159 49.0475 76.709 49.0332C76.8021 49.0189 76.9023 49.0117 77.0098 49.0117C77.1243 49.0117 77.2174 49.069 77.2891 49.1836C77.3607 49.291 77.3965 49.3877 77.3965 49.4736C77.3965 49.5524 77.375 49.6312 77.332 49.71C77.2891 49.7887 77.221 49.8604 77.1279 49.9248C76.8988 50.0824 76.6195 50.1611 76.29 50.1611C75.9678 50.1611 75.6849 50.1504 75.4414 50.1289C75.2051 50.1146 74.9831 50.1003 74.7754 50.0859L74.1523 50.0215C73.9518 50.0072 73.7334 50 73.4971 50C73.2607 50 73.0423 50.0072 72.8418 50.0215L72.2188 50.0859C71.5957 50.1361 71.1374 50.1611 70.8438 50.1611C70.5573 50.1611 70.3424 50.1361 70.1992 50.0859C70.0632 50.043 69.9486 49.9893 69.8555 49.9248C69.6764 49.7959 69.5869 49.667 69.5869 49.5381C69.5869 49.4092 69.6227 49.291 69.6943 49.1836C69.766 49.069 69.859 49.0117 69.9736 49.0117C70.0882 49.0117 70.1813 49.0189 70.2529 49.0332C70.3317 49.0404 70.4069 49.0475 70.4785 49.0547C70.7077 49.0905 70.9189 49.1084 71.1123 49.1084C71.3057 49.1084 71.4811 49.0511 71.6387 48.9365C71.7962 48.8219 71.918 48.6501 72.0039 48.4209C72.1543 48.0199 72.2295 47.3431 72.2295 46.3906V34.7354C70.8115 34.7354 69.791 34.8356 69.168 35.0361C69.0749 35.0648 68.8958 35.1113 68.6309 35.1758C68.3659 35.2402 68.0651 35.4014 67.7285 35.6592C67.3919 35.9098 67.0947 36.1676 66.8369 36.4326C66.5791 36.6904 66.3607 36.9196 66.1816 37.1201C66.0098 37.3206 65.8773 37.4209 65.7842 37.4209ZM84.4326 48.7324C83.874 48.2311 83.43 47.6224 83.1006 46.9062C82.7783 46.1901 82.6172 45.4167 82.6172 44.5859C82.6172 43.7552 82.764 42.9925 83.0576 42.2979C83.3512 41.6032 83.7666 40.9909 84.3037 40.4609C85.4925 39.2793 86.9678 38.6885 88.7295 38.6885C89.904 38.6885 90.9316 38.9928 91.8125 39.6016C92.4499 40.0384 92.9798 40.6113 93.4023 41.3203C93.696 41.8359 93.8428 42.1654 93.8428 42.3086C93.8428 42.4447 93.8356 42.5521 93.8213 42.6309C93.8141 42.7025 93.7926 42.7741 93.7568 42.8457C93.6781 43.0176 93.5277 43.1429 93.3057 43.2217C91.4795 43.8877 89.4492 44.4857 87.2148 45.0156L85.335 45.4668C85.5785 46.5124 86.1191 47.3216 86.957 47.8945C87.6947 48.3958 88.5648 48.6465 89.5674 48.6465C90.4339 48.6465 91.2288 48.3672 91.9521 47.8086C92.1813 47.6367 92.3604 47.4577 92.4893 47.2715C92.7113 46.9421 92.9476 46.7773 93.1982 46.7773C93.3558 46.7773 93.4919 46.9062 93.6064 47.1641C93.6351 47.2285 93.6494 47.2894 93.6494 47.3467C93.6494 47.6188 93.5098 47.9375 93.2305 48.3027C92.7363 48.9544 92.1025 49.445 91.3291 49.7744C90.5557 50.0967 89.7249 50.2578 88.8369 50.2578C87.9561 50.2578 87.1396 50.1289 86.3877 49.8711C85.6429 49.6061 84.9912 49.2266 84.4326 48.7324ZM85.1846 44.1133L88.2461 43.3184C90.0723 42.8314 91.0247 42.5234 91.1035 42.3945C91.125 42.3516 91.1357 42.2692 91.1357 42.1475C91.1357 42.0186 91.0856 41.8431 90.9854 41.6211C90.8851 41.3919 90.7311 41.1807 90.5234 40.9873C90.0436 40.5433 89.4206 40.3213 88.6543 40.3213C87.9023 40.3213 87.1934 40.5361 86.5273 40.9658C85.625 41.5531 85.1738 42.4769 85.1738 43.7373V43.9199C85.1738 43.9844 85.1774 44.0488 85.1846 44.1133ZM105.025 50.0645C104.61 50.0645 104.363 49.6885 104.284 48.9365C103.661 49.5596 102.827 49.9714 101.781 50.1719C101.459 50.2292 101.026 50.2578 100.481 50.2578C99.9372 50.2578 99.3786 50.1755 98.8057 50.0107C98.2327 49.846 97.7565 49.6133 97.377 49.3125C96.6107 48.7038 96.2275 47.8551 96.2275 46.7666C96.2275 45.585 96.7253 44.6826 97.7207 44.0596C98.5729 43.5296 99.64 43.2646 100.922 43.2646C102.146 43.2646 103.26 43.5296 104.263 44.0596V42.835C104.263 41.4242 103.607 40.5898 102.297 40.332C101.896 40.2533 101.506 40.2139 101.126 40.2139C100.754 40.2139 100.438 40.2318 100.181 40.2676C99.9229 40.2962 99.6758 40.3607 99.4395 40.4609C98.9453 40.6686 98.4762 41.0732 98.0322 41.6748C97.6956 42.1331 97.4235 42.3623 97.2158 42.3623C97.0081 42.3623 96.9043 42.2549 96.9043 42.04C96.9043 41.9111 96.9473 41.7035 97.0332 41.417C97.2194 40.8298 97.3125 40.0742 97.3125 39.1504C97.3125 38.7923 97.4486 38.6133 97.7207 38.6133C98.0072 38.6133 98.2542 38.6777 98.4619 38.8066C98.7484 38.9857 98.9131 39.0752 98.9561 39.0752C99.9873 38.8174 100.947 38.6885 101.835 38.6885C102.723 38.6885 103.504 38.8066 104.177 39.043C104.857 39.2721 105.391 39.5872 105.777 39.9883C106.436 40.6686 106.766 41.7035 106.766 43.0928V46.1973C106.766 47.4792 106.83 48.2562 106.959 48.5283C107.088 48.7933 107.228 48.9508 107.378 49.001C107.535 49.0439 107.729 49.0654 107.958 49.0654L108.57 48.9795C108.692 48.9795 108.789 49.0332 108.86 49.1406C108.939 49.2409 108.979 49.3304 108.979 49.4092C108.979 49.4808 108.961 49.556 108.925 49.6348C108.896 49.7135 108.842 49.7852 108.764 49.8496C108.563 50.0143 108.277 50.0967 107.904 50.0967L106.25 50L105.025 50.0645ZM104.263 45.4131C103.418 44.8831 102.515 44.6182 101.556 44.6182C100.216 44.6182 99.3464 45.0013 98.9453 45.7676C98.8236 45.9967 98.7627 46.251 98.7627 46.5303C98.7627 47.2679 99.0062 47.8229 99.4932 48.1953C99.9873 48.5605 100.678 48.7432 101.566 48.7432C102.655 48.7432 103.554 48.3135 104.263 47.4541V45.4131ZM111.406 50.1611C110.683 50.1611 110.321 49.9427 110.321 49.5059C110.321 49.3913 110.357 49.2874 110.429 49.1943C110.507 49.0941 110.608 49.0439 110.729 49.0439L111.267 49.1191C111.854 49.1191 112.208 48.5964 112.33 47.5508C112.373 47.1712 112.395 46.7093 112.395 46.165V43.0068C112.395 41.6462 112.237 40.7581 111.922 40.3428C111.814 40.1995 111.66 40.0993 111.46 40.042C111.267 39.9847 111.073 39.9346 110.88 39.8916C110.694 39.8486 110.529 39.7985 110.386 39.7412C110.25 39.6839 110.182 39.5944 110.182 39.4727C110.182 39.1504 110.414 38.9893 110.88 38.9893L112.459 39.1182L114.081 38.9893C114.375 38.9893 114.564 39.043 114.65 39.1504C114.822 39.3509 114.915 39.7161 114.93 40.2461C116.212 39.2077 117.551 38.6885 118.947 38.6885C119.799 38.6885 120.53 38.8568 121.139 39.1934C121.755 39.5299 122.22 39.9954 122.535 40.5898C123.438 39.7161 124.497 39.1325 125.715 38.8389C126.13 38.7386 126.599 38.6885 127.122 38.6885C127.645 38.6885 128.153 38.778 128.647 38.957C129.149 39.1361 129.575 39.3903 129.926 39.7197C130.649 40.4072 131.011 41.3096 131.011 42.4268V46.165C131.011 47.3037 131.075 48.0413 131.204 48.3779C131.333 48.7074 131.462 48.915 131.591 49.001C131.727 49.0798 131.881 49.1191 132.053 49.1191L132.611 49.0439C132.726 49.0439 132.819 49.0941 132.891 49.1943C132.962 49.2946 132.998 49.3877 132.998 49.4736C132.998 49.5596 132.98 49.6419 132.944 49.7207C132.916 49.7923 132.862 49.8604 132.783 49.9248C132.54 50.1396 132.081 50.2077 131.408 50.1289L130.409 50.0215C130.237 50.0072 130.044 50 129.829 50L127.562 50.1611C126.796 50.1611 126.413 49.9427 126.413 49.5059C126.413 49.3913 126.452 49.2874 126.531 49.1943C126.61 49.0941 126.71 49.0439 126.832 49.0439L127.391 49.1191C127.813 49.1191 128.1 48.8971 128.25 48.4531C128.386 48.0521 128.454 47.2894 128.454 46.165V42.8564C128.454 42.0973 128.264 41.5065 127.885 41.084C127.505 40.6543 127.004 40.4395 126.381 40.4395C125.214 40.4395 124.053 40.973 122.9 42.04C122.951 42.3551 122.976 42.6309 122.976 42.8672V46.165C122.976 47.3109 123.04 48.0485 123.169 48.3779C123.305 48.7074 123.438 48.915 123.566 49.001C123.695 49.0798 123.846 49.1191 124.018 49.1191L124.587 49.0439C124.709 49.0439 124.802 49.0941 124.866 49.1943C124.938 49.2946 124.974 49.3877 124.974 49.4736C124.974 49.5596 124.956 49.6419 124.92 49.7207C124.891 49.7923 124.838 49.8604 124.759 49.9248C124.501 50.1325 124.043 50.2005 123.384 50.1289L122.385 50.0215C122.206 50.0072 122.009 50 121.794 50L119.527 50.1611C118.911 50.1611 118.546 50.0143 118.432 49.7207C118.403 49.6419 118.389 49.5596 118.389 49.4736C118.389 49.3805 118.424 49.2874 118.496 49.1943C118.575 49.0941 118.679 49.0439 118.808 49.0439L119.366 49.1191C119.796 49.1191 120.082 48.9043 120.226 48.4746C120.362 48.0664 120.43 47.2965 120.43 46.165V42.8564C120.43 42.0973 120.236 41.5065 119.85 41.084C119.47 40.6543 118.94 40.4395 118.26 40.4395C117.2 40.4395 116.09 40.9551 114.93 41.9863V46.165C114.93 47.3753 115.001 48.1344 115.145 48.4424C115.295 48.7503 115.445 48.9401 115.596 49.0117C115.753 49.0833 115.936 49.1191 116.144 49.1191L116.681 49.0439C116.802 49.0439 116.896 49.0941 116.96 49.1943C117.032 49.2874 117.067 49.3913 117.067 49.5059C117.067 49.9427 116.695 50.1611 115.95 50.1611C115.578 50.1611 115.202 50.1325 114.822 50.0752C114.45 50.0251 114.088 50 113.737 50C113.386 50 113.104 50.0072 112.889 50.0215C112.681 50.043 112.491 50.0609 112.319 50.0752C112.147 50.0967 111.99 50.1146 111.847 50.1289C111.703 50.1504 111.557 50.1611 111.406 50.1611Z" fill="white"/>
</svg>
