<svg width="96" height="105" viewBox="0 0 96 105" fill="none" xmlns="http://www.w3.org/2000/svg">
<path d="M47.8908 12.7714C47.8778 12.7681 47.8648 12.7681 47.8519 12.7714C47.8389 12.7714 47.8259 12.7681 47.8129 12.7681V12.7714C31.097 12.983 17.5518 27.1226 17.5518 44.4857C17.5518 61.8522 31.097 75.9851 47.8129 76.2V76.2034C47.8259 76.2034 47.8389 76.2034 47.8519 76.2C47.8648 76.2 47.8778 76.2034 47.8908 76.2034V76.2C64.61 75.9918 78.1519 61.8589 78.1519 44.4857C78.1552 27.1293 64.61 12.9897 47.8908 12.7714Z" fill="#0E2D82"/>
<path d="M83.784 71.1398C84.6658 69.8135 85.2624 68.4133 85.5185 67.0702C85.7941 65.6565 85.7195 64.3302 85.3596 63.1919L85.3531 63.1852C85.3467 63.1617 85.3402 63.1348 85.3337 63.1147C85.3142 63.0711 85.2948 63.024 85.2883 62.977L85.2818 62.9602C84.8085 61.5634 84.7501 59.8341 85.1132 58.0545L85.097 58.0444C85.1651 57.7422 85.2364 57.4434 85.3305 57.1378C85.5898 56.3253 85.927 55.5698 86.3128 54.8848C87.7782 52.7459 91.9961 50.8991 91.9961 44.2204C91.9961 37.2295 86.5559 35.3357 85.5315 32.2936C85.5055 32.2264 85.4731 32.1895 85.4472 32.1291C85.3921 31.9813 85.3369 31.8403 85.2883 31.6892C84.6367 29.557 84.5815 27.4416 85.1197 25.7728L85.1619 25.6586C85.512 24.5808 85.5995 23.288 85.3726 21.9147H85.3694V21.9046C85.3402 21.73 85.3013 21.5554 85.2656 21.3774L85.2624 21.3237C85.2235 21.1659 85.1846 21.0047 85.1392 20.8469L85.1035 20.726C85.0711 20.5883 85.0257 20.4473 84.9738 20.313L84.909 20.1317L84.7826 19.7993L84.6853 19.5374L84.588 19.3225C84.5329 19.1982 84.481 19.0807 84.4227 18.9598L84.3935 18.9027C84.1244 18.3655 83.8132 17.835 83.4533 17.3246L83.3885 17.2339L83.3528 17.1869C82.3705 15.8069 81.1969 14.7357 79.9811 14.0339C78.7686 13.3255 77.5204 12.9863 76.3759 12.9964H76.363C76.3338 12.9964 76.3111 12.9964 76.2917 12.993C76.243 12.9964 76.2009 12.9997 76.149 12.9964H76.1295C74.7063 13.0367 73.095 12.5565 71.5745 11.6432L71.5648 11.6533C71.3151 11.4955 71.059 11.3242 70.8126 11.1395C69.0716 9.80985 67.8364 8.1276 67.3307 6.45206L67.2917 6.33118C66.9675 5.24662 66.3062 4.15198 65.34 3.17822V3.17487C65.2169 3.04727 65.0872 2.92303 64.9542 2.80887L64.9089 2.76522C64.7889 2.66112 64.6689 2.55368 64.5425 2.45294L64.4485 2.37571L64.1048 2.11716L63.9525 2.00971L63.6607 1.8116L63.4337 1.66722L63.2327 1.5497C63.1193 1.47918 63.0058 1.41874 62.8923 1.3583L62.8372 1.32808C62.3217 1.0561 61.7673 0.814342 61.1838 0.61959L61.08 0.586012L61.0152 0.562508C59.4395 0.0521244 57.8801 -0.098976 56.4958 0.0689133C55.1114 0.24016 53.9086 0.720324 52.9911 1.43553L52.9782 1.43889C52.9587 1.45904 52.936 1.47247 52.9133 1.4859C52.8809 1.52283 52.8452 1.5497 52.7998 1.5732L52.7901 1.58327C51.6522 2.48988 50.0863 3.07413 48.3323 3.26888V3.28567C48.1735 3.30246 48.0114 3.30582 47.8525 3.30918C47.6904 3.30582 47.5283 3.30582 47.3727 3.28567V3.27224C45.6187 3.07749 44.0496 2.49323 42.9149 1.58663L42.9051 1.57656C42.8662 1.54634 42.8273 1.52283 42.7949 1.48254C42.7722 1.46911 42.7495 1.45568 42.7301 1.43553L42.7203 1.43217C41.7996 0.716966 40.5968 0.236803 39.2125 0.0655555C37.8314 -0.102334 36.2752 0.0487666 34.6931 0.55915L34.6315 0.582655L34.5277 0.61959C33.9441 0.814342 33.393 1.0561 32.8743 1.32808L32.8192 1.3583C32.7057 1.41874 32.5922 1.47918 32.4787 1.5497L32.2777 1.66722L32.0508 1.8116L31.759 2.00971L31.6066 2.11716L31.2695 2.369L31.1722 2.44958C31.0458 2.55032 30.9258 2.65441 30.8059 2.7585L30.7605 2.80215C30.6275 2.91632 30.4979 3.04055 30.3747 3.16815L30.3714 3.17151C29.4053 4.14527 28.7472 5.24326 28.423 6.32447L28.3841 6.44871C27.8815 8.12424 26.6463 9.80985 24.9053 11.1362C24.6557 11.3276 24.3963 11.4955 24.1499 11.6533L24.137 11.6398C22.6165 12.5532 21.0084 13.0333 19.5852 12.9964H19.5657C19.5138 12.9997 19.4684 12.9964 19.4231 12.993C19.3939 12.9964 19.3777 12.9964 19.3452 12.9964H19.3355C18.1846 12.9863 16.9429 13.3221 15.7304 14.0306C14.5146 14.7324 13.341 15.8035 12.3587 17.1835L12.3197 17.2339L12.2549 17.3279C11.8918 17.835 11.5838 18.3688 11.3147 18.9061L11.2855 18.9598C11.2304 19.0807 11.1753 19.1982 11.1234 19.3225L11.0262 19.5374L10.9257 19.7993L10.7992 20.135L10.7409 20.313C10.6922 20.4473 10.6469 20.5883 10.6112 20.7227L10.5755 20.8469C10.5301 21.0014 10.4848 21.1625 10.4523 21.3237L10.4426 21.3808C10.4037 21.5554 10.3616 21.7367 10.3356 21.9046V21.9113C10.1087 23.288 10.1962 24.5774 10.5496 25.6586L10.5885 25.7728C11.1267 27.4416 11.0716 29.557 10.4199 31.6892C10.3745 31.8369 10.3162 31.978 10.2611 32.1257C10.2319 32.1861 10.1995 32.2264 10.1768 32.2902C9.15228 35.3324 3.71213 37.2262 3.71213 44.2171C3.71213 50.8957 7.93003 52.7425 9.39543 54.8814C9.78123 55.5664 10.1152 56.3219 10.3778 57.1345C10.4718 57.44 10.5464 57.7389 10.6112 58.0411L10.595 58.0512C10.9613 59.8308 10.9062 61.5601 10.4296 62.9569L10.4232 62.9737C10.4167 63.0207 10.3972 63.0677 10.3778 63.1113C10.3713 63.1382 10.3648 63.1651 10.3583 63.1819L10.3518 63.1886C9.98872 64.3269 9.9174 65.6532 10.193 67.0668C10.4491 68.4066 11.0456 69.8101 11.9275 71.1365L0 94.2817H12.7218L19.1831 104.429L30.1769 85.679C30.2644 85.7697 30.3228 85.8805 30.4168 85.9678C31.4413 86.9382 32.79 87.7642 34.3656 88.2981C34.9492 88.4962 35.5327 88.6372 36.1066 88.7313L36.1649 88.7413C36.2979 88.7615 36.4243 88.7749 36.5475 88.7917L36.7874 88.8253L37.0533 88.8488L37.3969 88.8723H37.585H38.0032H38.1199C38.2788 88.8622 38.4409 88.8555 38.5932 88.8387L38.6516 88.8353C38.8299 88.8186 39.0017 88.7883 39.1768 88.7648H39.18C40.5125 88.56 41.6667 88.0765 42.5453 87.3949L42.6393 87.3243C43.9394 86.3204 45.8035 85.7294 47.8557 85.6656C49.9079 85.7327 51.7721 86.3204 53.0722 87.3243L53.1629 87.3949C54.0415 88.0765 55.1957 88.5667 56.5314 88.7648C56.7097 88.7883 56.8783 88.8186 57.0566 88.8353L57.1182 88.8387C57.2739 88.8555 57.436 88.8622 57.5916 88.8723H57.7083H58.1297H58.3145L58.6582 88.8488L58.9241 88.8253L59.164 88.7917C59.2872 88.7749 59.4136 88.7615 59.5465 88.7413L59.6049 88.7313C60.182 88.6372 60.7623 88.4962 61.3459 88.2981C62.9182 87.7642 64.2669 86.9382 65.2979 85.9678C65.3887 85.8805 65.4503 85.7697 65.5346 85.679L76.5316 104.429L82.9897 94.285H95.7115L83.784 71.1398ZM79.323 54.1763C78.9663 55.4254 78.5481 56.6476 78.0521 57.8531C76.3792 61.9428 73.993 65.6163 70.9488 68.7692C67.9077 71.9188 64.3642 74.4002 60.4186 76.1228C56.4342 77.8655 52.213 78.7586 47.8557 78.8056C43.5017 78.7586 39.2773 77.8655 35.2961 76.1228C31.3473 74.3902 27.8037 71.9188 24.7627 68.7692C21.7184 65.6196 19.3258 61.9428 17.6594 57.8531C17.1666 56.6543 16.7484 55.4254 16.3885 54.1763C15.993 52.6787 15.0528 48.6796 15.0528 44.4891C15.0528 39.1804 16.3885 34.8019 16.3885 34.8019C16.7451 33.5561 17.1634 32.3305 17.6594 31.1217C19.329 27.0319 21.7217 23.3652 24.7659 20.2123C27.807 17.0627 31.3505 14.5846 35.2993 12.8554C39.2838 11.1127 43.5049 10.2195 47.859 10.1758C52.213 10.2195 56.4374 11.1127 60.4219 12.8554C64.3674 14.5846 67.9142 17.0627 70.952 20.2123C73.9963 23.3652 76.3922 27.0353 78.0553 31.1217C78.5481 32.3272 78.9663 33.5561 79.3262 34.8019C79.3262 34.8019 80.6619 39.1804 80.6619 44.4891C80.6587 48.6796 79.7185 52.6787 79.323 54.1763Z" fill="#0E2D82"/>
</svg>
