<svg width="96" height="109" viewBox="0 0 96 109" fill="none" xmlns="http://www.w3.org/2000/svg">
<path d="M82.0999 74.7971L72.3617 89.2879L65.4896 83.4465C64.7483 82.8121 63.6502 82.9275 63.0411 83.6953C62.4303 84.4648 62.5382 85.6021 63.283 86.2311L71.6116 93.3125C71.9231 93.5793 72.3147 93.7217 72.7149 93.7217C72.7932 93.7217 72.8733 93.7162 72.9533 93.7036C73.4336 93.6351 73.8652 93.3612 74.1436 92.9485L84.9573 76.8554C85.5055 76.0389 85.3123 74.9161 84.5222 74.3465C83.7322 73.7752 82.6498 73.9788 82.0999 74.7971Z" fill="#FCC028"/>
<path d="M74.829 61.3714V12.6164C74.829 11.6197 74.0493 10.814 73.0888 10.814H59.1671V7.20935C59.1671 6.21266 58.3875 5.40701 57.4269 5.40701H46.9856V1.80234C46.9856 0.805645 46.206 0 45.2454 0H29.5835C28.6229 0 27.8433 0.805645 27.8433 1.80234V5.40701H17.4021C16.4415 5.40701 15.6619 6.21266 15.6619 7.20935V10.814H1.74021C0.779613 10.814 0 11.6197 0 12.6164V102.733C0 103.73 0.779613 104.536 1.74021 104.536H61.0883C64.5722 106.807 68.6791 108.14 73.0888 108.14C85.5626 108.14 95.7115 97.629 95.7115 84.7099C95.7115 72.3981 86.4901 62.296 74.829 61.3714ZM31.3238 3.60468H43.5052V7.20935V10.814H31.3238V7.20935V3.60468ZM19.1423 9.01169H27.8433V12.6164C27.8433 13.6131 28.6229 14.4187 29.5835 14.4187H45.2454C46.206 14.4187 46.9856 13.6131 46.9856 12.6164V9.01169H55.6867V12.6164V16.221H19.1423V12.6164V9.01169ZM3.48042 100.931V14.4187H15.6619V18.0234C15.6619 19.0201 16.4415 19.8257 17.4021 19.8257H57.4269C58.3875 19.8257 59.1671 19.0201 59.1671 18.0234V14.4187H71.3485V61.348C71.2494 61.3552 71.1536 61.3768 71.0545 61.3858C70.7151 61.4183 70.381 61.4687 70.0469 61.5174C69.6484 61.5733 69.2481 61.6291 68.8566 61.7048C68.5207 61.7715 68.1936 61.8544 67.8629 61.9355C67.4818 62.0293 67.1007 62.1248 66.7283 62.2383C66.4029 62.3375 66.0844 62.451 65.766 62.5645C65.4005 62.6943 65.0385 62.8277 64.6818 62.9773C64.3703 63.1071 64.064 63.2476 63.7578 63.3918C63.4097 63.5558 63.0669 63.7253 62.7293 63.9055C62.4317 64.0641 62.1394 64.2317 61.8505 64.4047C61.5233 64.5994 61.2014 64.8012 60.8847 65.0139C60.6028 65.2014 60.3261 65.3942 60.0546 65.5943C59.7466 65.8196 59.4473 66.0539 59.1514 66.2954C58.8904 66.5081 58.6328 66.7225 58.3823 66.946C58.0951 67.202 57.8167 67.4669 57.5435 67.7373C57.3051 67.9716 57.0684 68.2077 56.8387 68.4528C56.5742 68.7357 56.3218 69.0295 56.0713 69.3269C55.8555 69.5828 55.6397 69.837 55.4361 70.1019C55.1959 70.4119 54.9714 70.7327 54.747 71.0554C54.5573 71.3293 54.3641 71.5997 54.1849 71.8826C53.9708 72.2197 53.7759 72.5675 53.5775 72.9154C53.4157 73.2038 53.2486 73.4867 53.0972 73.7805C52.911 74.1464 52.7457 74.5231 52.5769 74.8979C52.4447 75.1953 52.3037 75.4873 52.1819 75.7919C52.0253 76.1866 51.8913 76.5921 51.7555 76.9959C51.6529 77.2969 51.5415 77.5942 51.451 77.9006C51.324 78.3332 51.2265 78.7766 51.1238 79.2181C51.056 79.5119 50.9742 79.7985 50.915 80.0959C50.8193 80.5915 50.7567 81.0998 50.6923 81.6062C50.6592 81.8622 50.6105 82.1109 50.5844 82.3686C50.5061 83.1418 50.466 83.9204 50.466 84.7099C50.466 85.4939 50.5061 86.2725 50.5809 87.0421C50.6087 87.3341 50.6644 87.6152 50.7027 87.9054C50.7654 88.3794 50.821 88.8534 50.9115 89.3202C50.9724 89.6357 51.0595 89.9421 51.1325 90.2539C51.2335 90.6846 51.3274 91.1172 51.4527 91.5407C51.538 91.8273 51.6442 92.1049 51.7399 92.3878C51.8861 92.8258 52.0305 93.2656 52.2028 93.6927C52.2985 93.9324 52.4116 94.1613 52.516 94.3956C52.7161 94.8534 52.9197 95.3094 53.1477 95.7528C53.2486 95.9456 53.3617 96.1313 53.4679 96.3205C53.7255 96.7873 53.9865 97.2487 54.2754 97.6957C54.3815 97.8597 54.4981 98.0147 54.6077 98.1769C54.914 98.6275 55.2273 99.0745 55.5666 99.5035C55.6919 99.6621 55.8276 99.8099 55.9564 99.9649C56.2261 100.289 56.4837 100.621 56.7708 100.931H3.48042ZM73.0888 104.536C69.1594 104.536 65.5032 103.299 62.4613 101.189C61.8679 100.778 61.3075 100.331 60.7698 99.8621C60.5819 99.6981 60.4044 99.5197 60.2234 99.3466C59.8806 99.024 59.5482 98.6924 59.2315 98.3482C59.0279 98.1265 58.8312 97.9012 58.6381 97.6723C58.3527 97.3334 58.0847 96.9802 57.8236 96.6215C57.6566 96.3926 57.4843 96.1691 57.3259 95.933C56.9414 95.3545 56.5794 94.7597 56.2557 94.1433C56.1809 93.9991 56.1217 93.8459 56.0504 93.7017C55.7963 93.1863 55.5596 92.6636 55.3491 92.1265C55.2586 91.8922 55.1803 91.6525 55.0967 91.4128C54.9332 90.9406 54.7835 90.4629 54.653 89.9781C54.5869 89.7276 54.5225 89.4789 54.465 89.2247C54.3484 88.7111 54.258 88.1902 54.1814 87.6657C54.1483 87.4404 54.1066 87.2187 54.0822 86.9898C54.0004 86.2383 53.9465 85.4777 53.9465 84.7099C53.9465 73.7787 62.5344 64.8842 73.0888 64.8842C83.6431 64.8842 92.231 73.7787 92.231 84.7099C92.231 95.641 83.6431 104.536 73.0888 104.536Z" fill="#0E2D82"/>
<path d="M12.1819 32.4421H34.8046C35.7652 32.4421 36.5448 31.6364 36.5448 30.6397C36.5448 29.643 35.7652 28.8374 34.8046 28.8374H12.1819C11.2213 28.8374 10.4417 29.643 10.4417 30.6397C10.4417 31.6364 11.2213 32.4421 12.1819 32.4421Z" fill="#0E2D82"/>
<path d="M34.8046 82.9073H12.1819C11.2213 82.9073 10.4417 83.713 10.4417 84.7097C10.4417 85.7064 11.2213 86.512 12.1819 86.512H34.8046C35.7652 86.512 36.5448 85.7064 36.5448 84.7097C36.5448 83.713 35.7652 82.9073 34.8046 82.9073Z" fill="#0E2D82"/>
<path d="M12.1819 43.256H62.6479C63.6085 43.256 64.3881 42.4504 64.3881 41.4537C64.3881 40.457 63.6085 39.6514 62.6479 39.6514H12.1819C11.2213 39.6514 10.4417 40.457 10.4417 41.4537C10.4417 42.4504 11.2213 43.256 12.1819 43.256Z" fill="#0E2D82"/>
<path d="M12.1819 64.8842H53.9469C54.9075 64.8842 55.6871 64.0786 55.6871 63.0819C55.6871 62.0852 54.9075 61.2795 53.9469 61.2795H12.1819C11.2213 61.2795 10.4417 62.0852 10.4417 63.0819C10.4417 64.0786 11.2213 64.8842 12.1819 64.8842Z" fill="#0E2D82"/>
<path d="M45.2458 72.0934H12.1819C11.2213 72.0934 10.4417 72.899 10.4417 73.8957C10.4417 74.8924 11.2213 75.6981 12.1819 75.6981H45.2458C46.2064 75.6981 46.986 74.8924 46.986 73.8957C46.986 72.899 46.2064 72.0934 45.2458 72.0934Z" fill="#0E2D82"/>
<path d="M12.1819 54.0701H36.5448C37.5054 54.0701 38.285 53.2645 38.285 52.2678C38.285 51.2711 37.5054 50.4655 36.5448 50.4655H12.1819C11.2213 50.4655 10.4417 51.2711 10.4417 52.2678C10.4417 53.2645 11.2213 54.0701 12.1819 54.0701Z" fill="#0E2D82"/>
<path d="M62.6477 50.4655H50.4663C49.5057 50.4655 48.7261 51.2711 48.7261 52.2678C48.7261 53.2645 49.5057 54.0701 50.4663 54.0701H62.6477C63.6083 54.0701 64.3879 53.2645 64.3879 52.2678C64.3879 51.2711 63.6083 50.4655 62.6477 50.4655Z" fill="#0E2D82"/>
</svg>
