<svg width="96" height="107" viewBox="0 0 96 107" fill="none" xmlns="http://www.w3.org/2000/svg">
<path d="M85.0293 76.7313L68.7803 72.5329C68.7197 72.4381 68.6531 72.3468 68.5736 72.2645L63.7336 67.2497V62.4492C64.1365 62.0251 64.5308 61.5848 64.9146 61.126C69.4306 55.7245 72.1458 48.4477 72.5604 40.6358C72.577 40.3223 72.5924 40.0095 72.6075 39.697C72.6579 38.6634 72.7054 37.6873 72.8007 36.7022L74.4031 20.104C74.8983 14.9735 73.2668 9.8388 69.9264 6.01579C66.5861 2.19256 61.8147 0 56.8364 0H38.8751C33.8967 0 29.1256 2.19256 25.785 6.01556C22.4445 9.83857 20.8129 14.9737 21.3081 20.104L22.9095 36.6909C23.0049 37.6797 23.0531 38.6641 23.104 39.7064C23.1191 40.0162 23.1342 40.326 23.1506 40.6358C23.5652 48.4477 26.2805 55.7245 30.7964 61.126C31.18 61.5848 31.5746 62.0248 31.9774 62.4492V67.2497L27.1372 72.2643C27.0597 72.3445 26.9944 72.4331 26.9349 72.5251L10.6813 76.7315C3.79337 78.5149 0 82.8933 0 89.0602V101.084C0 104.064 2.34104 106.488 5.21861 106.488H90.4929C93.3704 106.488 95.7115 104.064 95.7115 101.084V89.06C95.7115 82.8933 91.9181 78.5149 85.0293 76.7313ZM46.0792 95.4486H49.6323C49.7562 95.4486 49.8786 95.4424 50.0005 95.4337L51.2503 103.039H44.4612L45.711 95.4337C45.8329 95.4424 45.9553 95.4486 46.0792 95.4486ZM51.5199 90.0437C51.5199 91.1217 50.6731 91.9987 49.6323 91.9987H46.0792C45.0383 91.9987 44.1916 91.1217 44.1916 90.0437V87.287L47.8557 84.757L51.5199 87.287V90.0437ZM35.3089 65.4069C39.0765 68.1963 43.3859 69.689 47.8557 69.689C52.3255 69.689 56.635 68.1963 60.4026 65.4069V67.2497L47.8557 80.2445L35.3089 67.2497V65.4069ZM54.1187 84.935C54.1169 84.9339 54.1152 84.9327 54.1134 84.9313L50.4699 82.4156L62.0679 70.4036L65.3327 73.7862C64.231 75.8449 61.6437 80.6674 57.9907 87.471C57.9838 87.4838 57.9694 87.5105 57.9285 87.5209C57.8815 87.5328 57.8477 87.5096 57.8366 87.502L54.1187 84.935ZM28.2549 8.33048C30.965 5.22874 34.8361 3.44995 38.8751 3.44995H56.8364C60.8756 3.44995 64.7465 5.22874 67.4568 8.33048C70.1669 11.432 71.4907 15.5981 71.0887 19.7604L70.0746 30.2639C67.8241 24.7095 65.3343 21.1516 65.1877 20.9444C64.657 20.1944 63.647 20.0155 62.9057 20.5399C58.5288 23.6347 39.035 24.0287 31.8915 23.9197C31.4096 23.9102 30.9479 24.1214 30.6263 24.4935C28.5853 26.853 26.9795 29.506 25.7884 31.8325L24.6229 19.7606C24.2208 15.5984 25.5447 11.4322 28.2549 8.33048ZM26.477 40.4465C26.4608 40.1416 26.4459 39.8368 26.431 39.5318C26.4208 39.3209 26.4101 39.1075 26.3993 38.8938C26.7581 37.8386 28.84 32.0227 32.6183 27.3786C37.2269 27.4204 56.0501 27.3892 63.2895 24.2092C64.7169 26.5414 67.7264 32.0008 69.314 38.8543C69.3024 39.0783 69.2915 39.3018 69.2807 39.5229C69.2656 39.8304 69.2507 40.1381 69.2342 40.4465C68.4668 54.9096 59.0762 66.2391 47.8557 66.2391C36.6353 66.2391 27.2447 54.9096 26.477 40.4465ZM33.6436 70.4036L45.2415 82.4156L41.5974 84.9318C41.5961 84.9327 41.5945 84.9339 41.5932 84.9348L37.8749 87.5022C37.864 87.5101 37.8302 87.5331 37.7829 87.5211C37.7421 87.511 37.7276 87.4841 37.721 87.4714C34.068 80.6677 31.4806 75.8451 30.379 73.7864L33.6436 70.4036ZM3.33103 101.084V89.0602C3.33103 84.5019 6.07579 81.48 11.4889 80.0784L27.6939 75.8851C28.6541 77.6809 30.6452 81.3917 34.8099 89.1481C35.274 90.0124 36.0721 90.6417 36.999 90.874C37.2646 90.9407 37.5349 90.9734 37.8045 90.9734C38.4804 90.9734 39.1509 90.7673 39.7227 90.3726L40.8608 89.5867V90.0435C40.8608 91.6217 41.5175 93.0438 42.5625 94.033L41.0824 103.039H19.3199V93.7237C19.3199 92.771 18.5742 91.9987 17.6544 91.9987C16.7346 91.9987 15.9889 92.771 15.9889 93.7237V103.039H5.21861C4.17777 103.039 3.33103 102.162 3.33103 101.084ZM92.3804 101.084C92.3804 102.162 91.5337 103.039 90.4929 103.039H79.7225V93.7237C79.7225 92.771 78.9768 91.9987 78.057 91.9987C77.1372 91.9987 76.3915 92.771 76.3915 93.7237V103.039H54.629L53.149 94.0332C54.194 93.0442 54.8507 91.6219 54.8507 90.0437V89.5869L55.9888 90.3728C56.5606 90.7677 57.231 90.9736 57.907 90.9736C58.1766 90.9736 58.4471 90.9407 58.7124 90.8742C59.6393 90.6417 60.4375 90.0127 60.9016 89.1481C65.0618 81.3997 67.0531 77.6887 68.0144 75.8906L84.2221 80.0784C89.6357 81.48 92.3804 84.5019 92.3804 89.06V101.084Z" fill="#0E2D82"/>
</svg>
